# xmcd CD database file
#
# Track frame offsets:
#	150
#	22402
#	40410
#	70912
#	98710
#	120400
#	145415
#	181227
#	199725
#	227900
#
# Disc length: 3397 seconds
#
# Revision: 7
# Processed by: cddbd v1.5.1PL0 Copyright (c) Steve Scherf et al.
# Submitted via: CDex 1.51
#
DISCID=8f0d430a
DTITLE=Charlie Hunter Trio - Bing, Bing, Bing!
DYEAR=1995
DGENRE=Jazz
TTITLE0=Greasy Granny
TTITLE1=Wornell's Yorkies
TTITLE2=Fistful Of Haggis
TTITLE3=Come As You Are
TTITLE4=Scrabbling for Purchase
TTITLE5=Bullethead
TTITLE6=Bing, Bing, Bing, Bing
TTITLE7=Squiddlesticks
TTITLE8=Lazy Susan (with a client now)
TTITLE9=Elbo Room
EXTD=YEAR: 1995
EXTT0=
EXTT1=
EXTT2=
EXTT3=
EXTT4=
EXTT5=
EXTT6=
EXTT7=
EXTT8=
EXTT9=
PLAYORDER=
